<?xml version="1.0" encoding="UTF-8"?>
<svg version="1.1" xmlns="http://www.w3.org/2000/svg" width="512" height="512">
<path d="M0 0 C1.16660156 -0.03287109 2.33320312 -0.06574219 3.53515625 -0.09960938 C11.93144361 -0.15250695 11.93144361 -0.15250695 16.1171875 2.46484375 C17.875 5.4375 17.875 5.4375 18.875 13.4375 C30.095 13.4375 41.315 13.4375 52.875 13.4375 C52.875 11.1275 52.875 8.8175 52.875 6.4375 C54.67062405 3.68420979 55.92754922 1.91122539 58.875 0.4375 C60.30575219 0.34115476 61.74089417 0.30653472 63.17488289 0.30327892 C64.08309764 0.29882108 64.99131239 0.29436324 65.9270488 0.28977031 C67.4334311 0.29004685 67.4334311 0.29004685 68.97024536 0.29032898 C70.5630526 0.28481395 70.5630526 0.28481395 72.18803775 0.2791875 C75.77005731 0.26811557 79.35204789 0.26430087 82.93408203 0.26049805 C85.49279371 0.254236 88.05150448 0.24758944 90.61021423 0.24058533 C98.30692619 0.22133047 106.00363307 0.21075231 113.70036298 0.20185754 C117.32449289 0.19747562 120.94862134 0.19210848 124.57275009 0.18686867 C136.6202597 0.16985364 148.66776838 0.15536014 160.71528816 0.14811993 C163.8427442 0.14621001 166.97020024 0.14428968 170.09765625 0.14233398 C171.2636377 0.14160837 171.2636377 0.14160837 172.45317434 0.1408681 C185.04124848 0.13257038 197.62922751 0.10723907 210.21726014 0.07475331 C223.14018581 0.04167521 236.06306318 0.0236704 248.98603141 0.02047569 C256.2421323 0.01831105 263.49809458 0.00956951 270.75415421 -0.01598549 C277.58149223 -0.03997482 284.4085771 -0.0435134 291.23594856 -0.03322411 C293.74173753 -0.03272777 296.24753863 -0.03907687 298.75329018 -0.05278015 C302.1751111 -0.07044578 305.59603153 -0.06341809 309.01785278 -0.05024719 C310.50415858 -0.06670106 310.50415858 -0.06670106 312.02049077 -0.08348733 C320.08654202 -0.00856924 326.38891157 2.41245563 332.4921875 7.83203125 C340.9185295 17.61515713 340.02331622 29.76816772 340.00871277 41.89207458 C340.0105827 43.36511911 340.01288413 44.83816315 340.01557809 46.3112064 C340.02167973 50.34612363 340.02156443 54.38102009 340.02038372 58.41594088 C340.0201793 62.77252624 340.0257023 67.12910499 340.03044128 71.48568726 C340.03873893 80.01543758 340.04149571 88.54518099 340.04205366 97.07493501 C340.04252915 104.0083069 340.04458553 110.94167651 340.04775429 117.87504768 C340.05655768 137.53769032 340.06117404 157.20032751 340.06042381 176.86297213 C340.06036388 178.45217666 340.06036388 178.45217666 340.06030273 180.07348633 C340.06026185 181.134251 340.06022097 182.19501566 340.06017885 183.28792471 C340.05977225 200.48553907 340.06934611 217.68313154 340.0834411 234.88073956 C340.09780363 252.54426168 340.10471138 270.20777313 340.10384732 287.87130123 C340.10351536 297.78604594 340.10626236 307.70076769 340.11702538 317.61550713 C340.12612865 326.05525116 340.12830696 334.49496183 340.12151595 342.93470865 C340.11825016 347.23959402 340.11819628 351.54441537 340.1268692 355.84929466 C340.13473222 359.79273684 340.13330481 363.7360642 340.12458507 367.67950357 C340.12304967 369.10337259 340.12486774 370.52725018 340.13044515 371.9511091 C340.17237483 383.41797916 339.94482673 392.70741472 331.875 401.4375 C328.72046338 404.51183654 326.0901061 407.03246463 321.875 408.4375 C320.69182471 416.40938597 320.57665287 424.36477407 320.4453125 432.4140625 C320.25167491 439.12683245 319.58312977 443.69770175 315.5625 449.25 C313.875 450.4375 313.875 450.4375 307.875 451.4375 C307.875 457.3775 307.875 463.3175 307.875 469.4375 C309.17695313 469.40269531 310.47890625 469.36789062 311.8203125 469.33203125 C313.54686204 469.30388099 315.27342561 469.27658216 317 469.25 C318.28390625 469.21229492 318.28390625 469.21229492 319.59375 469.17382812 C324.78109711 469.11397412 328.4206379 469.46098701 332.875 472.4375 C335.71775062 476.70162592 335.49025305 480.43557261 334.875 485.4375 C333.4375 488.4375 333.4375 488.4375 330.875 490.4375 C325.04846718 492.3375929 319.20177363 492.73017927 313.11968994 492.70924377 C311.87000526 492.71687403 311.87000526 492.71687403 310.59507442 492.72465843 C307.82928528 492.73921333 305.06367615 492.73985049 302.29785156 492.74047852 C300.30465859 492.7481468 298.31146884 492.75669451 296.31828308 492.76605225 C292.03934632 492.78427872 287.76045279 492.7963504 283.48148346 492.80359077 C276.71634711 492.81510458 269.95130655 492.84057134 263.18621826 492.86790466 C252.48978488 492.90949549 241.79334686 492.94193967 231.09687114 492.97037882 C211.92891114 493.02142196 192.76099118 493.08351625 173.59309936 493.15571922 C166.86654543 493.18063533 160.14000418 493.20006916 153.41342115 493.21510136 C149.23406609 493.22530017 145.05473083 493.23944577 140.87539101 493.25457764 C138.93596933 493.26073614 136.9965414 493.26519377 135.05711174 493.26783562 C132.41216291 493.27164467 129.76730145 493.28145865 127.12237549 493.29273987 C126.35321627 493.29235374 125.58405705 493.2919676 124.79158998 493.29156977 C121.04910246 493.31387658 117.47770963 493.35905445 113.875 494.4375 C112.47218745 496.49133438 112.47218745 496.49133438 111.5625 499.0625 C108.86795498 505.04370344 104.7950945 509.47745275 98.875 512.4375 C95.67253866 512.67778556 92.46047612 512.62270352 89.25 512.625 C88.37214844 512.63724609 87.49429688 512.64949219 86.58984375 512.66210938 C80.97523389 512.67462336 76.27887044 511.92922364 70.875 510.4375 C68.44954669 510.13249448 68.44954669 510.13249448 66.3125 510.1875 C65.63058594 510.18234375 64.94867188 510.1771875 64.24609375 510.171875 C61.70643721 510.38065266 61.70643721 510.38065266 58.71484375 511.421875 C50.42704686 513.61396777 39.93461418 514.15562117 31.74609375 511.375 C26.81060664 508.30180329 23.09171466 503.82094988 20.875 498.4375 C20.52149896 496.44096597 20.18618059 494.44106626 19.875 492.4375 C19.11469482 492.44797363 18.35438965 492.45844727 17.57104492 492.46923828 C14.06823134 492.51125821 10.56547108 492.5369708 7.0625 492.5625 C5.86689453 492.57925781 4.67128906 492.59601563 3.43945312 492.61328125 C-13.12287075 492.70353915 -25.74024178 489.3693679 -37.94140625 477.65625 C-38.66199219 476.9240625 -39.38257812 476.191875 -40.125 475.4375 C-40.71152344 474.8496875 -41.29804687 474.261875 -41.90234375 473.65625 C-50.91412855 463.93361194 -54.24907155 451.42280046 -54.25084114 438.43803024 C-54.25229458 437.76634129 -54.25374802 437.09465233 -54.25524551 436.40260917 C-54.25888475 434.15972006 -54.25542875 431.9168998 -54.25198364 429.67401123 C-54.25313629 428.04651296 -54.25472478 426.41901496 -54.25671089 424.7915175 C-54.26088467 420.32494097 -54.25882228 415.85838582 -54.25572467 411.39180923 C-54.25346279 406.57231613 -54.25695417 401.75282672 -54.25970459 396.93333435 C-54.26415321 387.49304156 -54.26318972 378.05275672 -54.26029195 368.61246362 C-54.25803383 360.93823853 -54.25772717 353.26401567 -54.25881577 345.58979034 C-54.258969 344.49764704 -54.25912223 343.40550373 -54.25928011 342.28026517 C-54.25959983 340.06156395 -54.25992405 337.84286273 -54.2602527 335.62416151 C-54.26310497 314.81361555 -54.2598247 294.00307399 -54.25445233 273.19252875 C-54.24998703 255.34335681 -54.25075846 237.49419136 -54.25537109 219.64501953 C-54.26072563 198.91527806 -54.26282766 178.18554045 -54.25975883 157.45579839 C-54.25944028 155.24402316 -54.25912591 153.03224794 -54.25881577 150.82047272 C-54.25866149 149.73226191 -54.25850721 148.6440511 -54.25834826 147.52286421 C-54.25748556 139.86156297 -54.25894073 132.20026418 -54.26129532 124.53896332 C-54.26410338 115.19675751 -54.26333391 105.85456009 -54.25801457 96.51235524 C-54.25539078 91.74751219 -54.25435007 86.98268313 -54.25766373 82.21784019 C-54.26065406 77.85176966 -54.25898841 73.48572602 -54.25368617 69.1196579 C-54.25257362 67.544312 -54.25312726 65.9689638 -54.25556196 64.39361939 C-54.28460493 44.03187234 -52.10622215 28.92207937 -38.125 13.4375 C-27.28423055 3.12754035 -14.4892117 0.07252664 0 0 Z " fill="#FEFEFE" transform="translate(113.125,-0.4375)"/>
<path d="M0 0 C1.16660156 -0.03287109 2.33320312 -0.06574219 3.53515625 -0.09960938 C12.05637058 -0.153294 12.05637058 -0.153294 16.1171875 2.77734375 C18.67714181 6.65140793 19.00010579 9.42567759 19.00084114 13.96647072 C19.00344889 15.12338091 19.00605664 16.28029109 19.00874341 17.47225916 C19.00651268 18.7491764 19.00428196 20.02609363 19.00198364 21.34170532 C19.00313525 22.7073144 19.00472304 24.07292316 19.00671089 25.43853128 C19.0108991 29.19970858 19.00881576 32.96086062 19.00572467 36.72203803 C19.00346861 40.77536681 19.0069513 44.82869114 19.00970459 48.88201904 C19.01415977 56.82758071 19.01318672 64.77313296 19.01029195 72.718695 C19.00803598 79.17783455 19.00772624 85.63697146 19.00881577 92.0961113 C19.008969 93.01452625 19.00912223 93.93294121 19.00928011 94.87918692 C19.00959983 96.74485474 19.00992404 98.61052256 19.0102527 100.47619037 C19.013107 117.98798947 19.00982175 135.49978334 19.00445233 153.01158158 C18.99998881 168.03360259 19.0007566 183.05561586 19.00537109 198.07763672 C19.01072544 215.51635025 19.0128276 232.95505919 19.00975883 250.39377344 C19.00944028 252.25451366 19.00912591 254.11525388 19.00881577 255.97599411 C19.00858435 257.34929396 19.00858435 257.34929396 19.00834826 258.75033725 C19.00748536 265.19775225 19.00894121 271.64516434 19.01129532 278.09257889 C19.01410325 285.95602226 19.01333426 293.81945565 19.00801457 301.68289788 C19.0053903 305.69406707 19.00435085 309.70521964 19.00766373 313.7163887 C19.0106532 317.39169147 19.00898981 321.06696228 19.00368617 324.74226217 C19.00204779 326.69493495 19.00529604 328.64760997 19.00874341 330.6002804 C18.96977143 348.12377428 18.96977143 348.12377428 15.375 352.4375 C14.55 353.0975 13.725 353.7575 12.875 354.4375 C12.545 354.7675 12.215 355.0975 11.875 355.4375 C7.25955511 356.01919863 3.87366833 356.0616677 -0.125 353.5625 C-5.84538051 347.4845957 -4.27431565 336.51753524 -4.27648926 328.65472412 C-4.28072167 327.49551618 -4.28495408 326.33630824 -4.28931475 325.14197278 C-4.30003092 321.94603899 -4.30641864 318.75013115 -4.31094956 315.55418372 C-4.31693301 312.09771172 -4.32859354 308.64125825 -4.33958435 305.18479919 C-4.35789416 299.1969019 -4.37275752 293.20900413 -4.38536072 287.22109222 C-4.40373628 278.53211697 -4.42840351 269.84316796 -4.45473462 261.15421358 C-4.4975026 247.01346218 -4.5366072 232.8727034 -4.57275391 218.73193359 C-4.57491671 217.88632367 -4.57707951 217.04071375 -4.57930785 216.16947928 C-4.59243061 211.03158992 -4.60547073 205.89370036 -4.61848927 200.75581074 C-4.63792896 193.08736954 -4.65749099 185.41892867 -4.67724609 177.75048828 C-4.67940496 176.91198175 -4.68156383 176.07347523 -4.68378812 175.20955941 C-4.72011762 161.1438602 -4.76009853 147.07817349 -4.80254889 133.01249146 C-4.82846612 124.36650117 -4.85118069 115.72051431 -4.86953247 107.07450458 C-4.882371 101.12389007 -4.89855583 95.17329028 -4.91718161 89.22269109 C-4.92775271 85.80848258 -4.93640906 82.39430023 -4.94187737 78.98007774 C-4.97212768 60.77635896 -5.38896156 42.62530847 -6.125 24.4375 C-7.56488451 24.72231439 -9.00284903 25.0168461 -10.43994141 25.31542969 C-11.2409024 25.47839539 -12.0418634 25.64136108 -12.86709595 25.80926514 C-16.12493253 26.7157193 -18.07143474 28.37682625 -20.5 30.6875 C-21.31210938 31.43515625 -22.12421875 32.1828125 -22.9609375 32.953125 C-28.07787427 38.8274423 -30.37664831 45.89800264 -30.37109566 53.61063194 C-30.37507775 54.83479989 -30.37905985 56.05896785 -30.38316262 57.3202318 C-30.37745731 58.67030626 -30.37156614 60.02037995 -30.36550903 61.37045288 C-30.36638148 62.81106251 -30.36813318 64.25167183 -30.37068737 65.69227946 C-30.37515723 69.64651177 -30.36716217 73.60063565 -30.35713124 77.55485415 C-30.34849386 81.82063717 -30.35141711 86.08641407 -30.35293579 90.35220337 C-30.35398446 97.74150415 -30.34770974 105.1307696 -30.33646011 112.52006149 C-30.32020563 123.2037308 -30.31499716 133.88738302 -30.31248413 144.57106335 C-30.30810695 161.90464437 -30.29479721 179.23820655 -30.27587891 196.57177734 C-30.25752071 213.40966701 -30.24336391 230.24755156 -30.23486328 247.08544922 C-30.23433783 248.12334734 -30.23381239 249.16124546 -30.23327102 250.23059504 C-30.23066094 255.437428 -30.22813353 260.64426099 -30.22564721 265.85109401 C-30.20491399 309.04657571 -30.16968781 352.24203688 -30.125 395.4375 C-29.22085832 394.94292659 -28.31671663 394.44835319 -27.38517672 393.93879271 C-20.56787291 390.30483001 -14.83364401 387.3852328 -6.94664001 387.51184082 C-6.11561514 387.49687451 -5.28459026 387.4819082 -4.42838281 387.46648836 C-1.65992067 387.42485228 1.1062639 387.4316417 3.875 387.4375 C5.91393615 387.41458135 7.95283826 387.3884586 9.99169731 387.35948181 C17.00156382 387.27262645 24.01091244 387.25973533 31.02124023 387.24804688 C33.69631673 387.24008526 36.3713895 387.23174387 39.04646301 387.22291565 C44.77006464 387.20472328 50.49366686 387.1898146 56.21728325 387.17713928 C64.52384275 387.15865655 72.83037578 387.13399605 81.13691402 387.10776538 C94.66149848 387.06513592 108.18609036 387.02599493 121.71069336 386.98974609 C122.517186 386.98758329 123.32367865 386.98542049 124.15461046 386.98319215 C129.87390675 386.96787637 135.59320336 386.95268232 141.3125 386.9375 C147.83032254 386.92018532 154.34814486 386.90279234 160.8659668 386.88525391 C161.66872641 386.88309504 162.47148603 386.88093617 163.2985717 386.87871188 C176.76797302 386.84237494 190.23736133 386.80240339 203.70674473 386.75995111 C211.9734356 386.7340697 220.24012296 386.71134767 228.50683398 386.69296753 C234.19009524 386.68012268 239.87334113 386.66393599 245.55658638 386.64531839 C248.81492278 386.63475882 252.07324317 386.62609777 255.33159256 386.62062263 C268.81781789 386.59711083 282.29039705 386.42846207 295.76942444 385.98815918 C296.99325032 385.94964859 298.2170762 385.91113801 299.47798771 385.87146044 C301.1919876 385.80997419 301.1919876 385.80997419 302.94061375 385.74724579 C303.94394326 385.71179389 304.94727277 385.676342 305.98100621 385.63981581 C308.99503752 385.42910831 311.90434945 384.98058153 314.875 384.4375 C316.04613775 377.02859443 316.01788132 369.68748333 316.00871277 362.2015686 C316.01058275 360.75240882 316.0128842 359.30324954 316.01557809 357.85409105 C316.02167859 353.88547044 316.02156458 349.91687095 316.02038372 345.94824672 C316.02017928 341.6633705 316.02570228 337.378501 316.03044128 333.09362793 C316.0387371 324.70659682 316.04149558 316.31957274 316.04205366 307.93253787 C316.04252901 301.11924313 316.04458468 294.30595071 316.04775429 287.49265671 C316.05655532 268.18191711 316.06117413 248.87118307 316.06042381 229.56044145 C316.06038386 228.52004167 316.0603439 227.47964189 316.06030273 226.40771484 C316.06026185 225.36604831 316.06022097 224.32438177 316.06017885 223.25114958 C316.05977179 206.34303308 316.06935799 189.43493879 316.0834411 172.52682872 C316.09778272 155.17183376 316.10471262 137.81684966 316.10384732 120.46184862 C316.10351475 110.71555987 316.10628864 100.96929444 316.11702538 91.22301102 C316.12610093 82.93165372 316.12832975 74.64033034 316.12151595 66.34897025 C316.11823673 62.11583612 316.11824437 57.88276718 316.1268692 53.64963913 C316.13467289 49.7799624 316.13336639 45.91040321 316.12458507 42.04072957 C316.12303652 40.63582749 316.12491654 39.2309169 316.13044515 37.82602485 C316.1374294 35.9264711 316.13105971 34.02688192 316.12388897 32.12732887 C316.12410634 31.06920797 316.12432371 30.01108707 316.12454766 28.92090189 C316.12201334 26.26260324 316.12201334 26.26260324 313.875 24.4375 C302.5512495 22.11904924 289.97189475 23.29259992 278.48486328 23.2956543 C276.11847367 23.29261875 273.75208464 23.28909621 271.38569641 23.28512573 C266.30960145 23.27727033 261.23351342 23.27210472 256.15741348 23.26883507 C248.13160264 23.26290274 240.10583526 23.2463854 232.08004761 23.22749329 C229.32836348 23.22113877 226.57667926 23.21483012 223.82499504 23.20851612 C223.13760116 23.20693236 222.45020727 23.2053486 221.74198327 23.20371684 C213.93899442 23.1858245 206.13600269 23.16957332 198.33300781 23.15454102 C197.62062953 23.15316514 196.90825125 23.15178927 196.17428575 23.15037171 C184.60725502 23.1283991 173.04023527 23.11767265 161.47318734 23.11017027 C149.57821886 23.10209983 137.6833441 23.07882006 125.78842914 23.0422166 C119.11719399 23.02218257 112.44608322 23.01005767 105.77481461 23.01505089 C99.50870895 23.01968475 93.24291599 23.00596084 86.9768734 22.97803879 C84.67666208 22.97110836 82.37641855 22.97102023 80.07620811 22.97823906 C76.93878735 22.98709226 73.80240579 22.97149061 70.66506958 22.94975281 C69.2969855 22.96241661 69.2969855 22.96241661 67.90126336 22.97533625 C62.41523435 22.90493878 59.20631598 22.13586575 54.875 18.4375 C52.5569491 14.53895984 52.39621459 10.90616379 52.875 6.4375 C54.67062405 3.68420979 55.92754922 1.91122539 58.875 0.4375 C60.30575219 0.34115476 61.74089417 0.30653472 63.17488289 0.30327892 C64.08309764 0.29882108 64.99131239 0.29436324 65.9270488 0.28977031 C67.4334311 0.29004685 67.4334311 0.29004685 68.97024536 0.29032898 C70.5630526 0.28481395 70.5630526 0.28481395 72.18803775 0.2791875 C75.77005731 0.26811557 79.35204789 0.26430087 82.93408203 0.26049805 C85.49279371 0.254236 88.05150448 0.24758944 90.61021423 0.24058533 C98.30692619 0.22133047 106.00363307 0.21075231 113.70036298 0.20185754 C117.32449289 0.19747562 120.94862134 0.19210848 124.57275009 0.18686867 C136.6202597 0.16985364 148.66776838 0.15536014 160.71528816 0.14811993 C163.8427442 0.14621001 166.97020024 0.14428968 170.09765625 0.14233398 C171.2636377 0.14160837 171.2636377 0.14160837 172.45317434 0.1408681 C185.04124848 0.13257038 197.62922751 0.10723907 210.21726014 0.07475331 C223.14018581 0.04167521 236.06306318 0.0236704 248.98603141 0.02047569 C256.2421323 0.01831105 263.49809458 0.00956951 270.75415421 -0.01598549 C277.58149223 -0.03997482 284.4085771 -0.0435134 291.23594856 -0.03322411 C293.74173753 -0.03272777 296.24753863 -0.03907687 298.75329018 -0.05278015 C302.1751111 -0.07044578 305.59603153 -0.06341809 309.01785278 -0.05024719 C310.50415858 -0.06670106 310.50415858 -0.06670106 312.02049077 -0.08348733 C320.08654202 -0.00856924 326.38891157 2.41245563 332.4921875 7.83203125 C340.9185295 17.61515713 340.02331622 29.76816772 340.00871277 41.89207458 C340.0105827 43.36511911 340.01288413 44.83816315 340.01557809 46.3112064 C340.02167973 50.34612363 340.02156443 54.38102009 340.02038372 58.41594088 C340.0201793 62.77252624 340.0257023 67.12910499 340.03044128 71.48568726 C340.03873893 80.01543758 340.04149571 88.54518099 340.04205366 97.07493501 C340.04252915 104.0083069 340.04458553 110.94167651 340.04775429 117.87504768 C340.05655768 137.53769032 340.06117404 157.20032751 340.06042381 176.86297213 C340.06036388 178.45217666 340.06036388 178.45217666 340.06030273 180.07348633 C340.06026185 181.134251 340.06022097 182.19501566 340.06017885 183.28792471 C340.05977225 200.48553907 340.06934611 217.68313154 340.0834411 234.88073956 C340.09780363 252.54426168 340.10471138 270.20777313 340.10384732 287.87130123 C340.10351536 297.78604594 340.10626236 307.70076769 340.11702538 317.61550713 C340.12612865 326.05525116 340.12830696 334.49496183 340.12151595 342.93470865 C340.11825016 347.23959402 340.11819628 351.54441537 340.1268692 355.84929466 C340.13473222 359.79273684 340.13330481 363.7360642 340.12458507 367.67950357 C340.12304967 369.10337259 340.12486774 370.52725018 340.13044515 371.9511091 C340.17237483 383.41797916 339.94482673 392.70741472 331.875 401.4375 C328.72046338 404.51183654 326.0901061 407.03246463 321.875 408.4375 C320.69182471 416.40938597 320.57665287 424.36477407 320.4453125 432.4140625 C320.25167491 439.12683245 319.58312977 443.69770175 315.5625 449.25 C313.875 450.4375 313.875 450.4375 307.875 451.4375 C307.875 457.3775 307.875 463.3175 307.875 469.4375 C309.17695313 469.40269531 310.47890625 469.36789062 311.8203125 469.33203125 C313.54686204 469.30388099 315.27342561 469.27658216 317 469.25 C318.28390625 469.21229492 318.28390625 469.21229492 319.59375 469.17382812 C324.78109711 469.11397412 328.4206379 469.46098701 332.875 472.4375 C335.71775062 476.70162592 335.49025305 480.43557261 334.875 485.4375 C333.4375 488.4375 333.4375 488.4375 330.875 490.4375 C325.04846718 492.3375929 319.20177363 492.73017927 313.11968994 492.70924377 C311.87000526 492.71687403 311.87000526 492.71687403 310.59507442 492.72465843 C307.82928528 492.73921333 305.06367615 492.73985049 302.29785156 492.74047852 C300.30465859 492.7481468 298.31146884 492.75669451 296.31828308 492.76605225 C292.03934632 492.78427872 287.76045279 492.7963504 283.48148346 492.80359077 C276.71634711 492.81510458 269.95130655 492.84057134 263.18621826 492.86790466 C252.48978488 492.90949549 241.79334686 492.94193967 231.09687114 492.97037882 C211.92891114 493.02142196 192.76099118 493.08351625 173.59309936 493.15571922 C166.86654543 493.18063533 160.14000418 493.20006916 153.41342115 493.21510136 C149.23406609 493.22530017 145.05473083 493.23944577 140.87539101 493.25457764 C138.93596933 493.26073614 136.9965414 493.26519377 135.05711174 493.26783562 C132.41216291 493.27164467 129.76730145 493.28145865 127.12237549 493.29273987 C126.35321627 493.29235374 125.58405705 493.2919676 124.79158998 493.29156977 C121.04910246 493.31387658 117.47770963 493.35905445 113.875 494.4375 C112.47218745 496.49133438 112.47218745 496.49133438 111.5625 499.0625 C108.86795498 505.04370344 104.7950945 509.47745275 98.875 512.4375 C95.67253866 512.67778556 92.46047612 512.62270352 89.25 512.625 C88.37214844 512.63724609 87.49429688 512.64949219 86.58984375 512.66210938 C80.97523389 512.67462336 76.27887044 511.92922364 70.875 510.4375 C68.44954669 510.13249448 68.44954669 510.13249448 66.3125 510.1875 C65.63058594 510.18234375 64.94867188 510.1771875 64.24609375 510.171875 C61.70643721 510.38065266 61.70643721 510.38065266 58.71484375 511.421875 C50.42704686 513.61396777 39.93461418 514.15562117 31.74609375 511.375 C26.81060664 508.30180329 23.09171466 503.82094988 20.875 498.4375 C20.52149896 496.44096597 20.18618059 494.44106626 19.875 492.4375 C19.11469482 492.44797363 18.35438965 492.45844727 17.57104492 492.46923828 C14.06823134 492.51125821 10.56547108 492.5369708 7.0625 492.5625 C5.86689453 492.57925781 4.67128906 492.59601563 3.43945312 492.61328125 C-13.12287075 492.70353915 -25.74024178 489.3693679 -37.94140625 477.65625 C-38.66199219 476.9240625 -39.38257812 476.191875 -40.125 475.4375 C-40.71152344 474.8496875 -41.29804687 474.261875 -41.90234375 473.65625 C-50.91412855 463.93361194 -54.24907155 451.42280046 -54.25084114 438.43803024 C-54.25229458 437.76634129 -54.25374802 437.09465233 -54.25524551 436.40260917 C-54.25888475 434.15972006 -54.25542875 431.9168998 -54.25198364 429.67401123 C-54.25313629 428.04651296 -54.25472478 426.41901496 -54.25671089 424.7915175 C-54.26088467 420.32494097 -54.25882228 415.85838582 -54.25572467 411.39180923 C-54.25346279 406.57231613 -54.25695417 401.75282672 -54.25970459 396.93333435 C-54.26415321 387.49304156 -54.26318972 378.05275672 -54.26029195 368.61246362 C-54.25803383 360.93823853 -54.25772717 353.26401567 -54.25881577 345.58979034 C-54.258969 344.49764704 -54.25912223 343.40550373 -54.25928011 342.28026517 C-54.25959983 340.06156395 -54.25992405 337.84286273 -54.2602527 335.62416151 C-54.26310497 314.81361555 -54.2598247 294.00307399 -54.25445233 273.19252875 C-54.24998703 255.34335681 -54.25075846 237.49419136 -54.25537109 219.64501953 C-54.26072563 198.91527806 -54.26282766 178.18554045 -54.25975883 157.45579839 C-54.25944028 155.24402316 -54.25912591 153.03224794 -54.25881577 150.82047272 C-54.25866149 149.73226191 -54.25850721 148.6440511 -54.25834826 147.52286421 C-54.25748556 139.86156297 -54.25894073 132.20026418 -54.26129532 124.53896332 C-54.26410338 115.19675751 -54.26333391 105.85456009 -54.25801457 96.51235524 C-54.25539078 91.74751219 -54.25435007 86.98268313 -54.25766373 82.21784019 C-54.26065406 77.85176966 -54.25898841 73.48572602 -54.25368617 69.1196579 C-54.25257362 67.544312 -54.25312726 65.9689638 -54.25556196 64.39361939 C-54.28460493 44.03187234 -52.10622215 28.92207937 -38.125 13.4375 C-27.28423055 3.12754035 -14.4892117 0.07252664 0 0 Z " fill="#6EBAFB" transform="translate(113.125,-0.4375)"/>
<path d="M0 0 C3.67991179 2.0861178 6.68219416 4.92678195 8 9 C7.95875 10.11375 7.9175 11.2275 7.875 12.375 C8.59916485 16.12099344 8.59916485 16.12099344 11.4140625 17.46875 C13.53735235 18.43632512 15.66385499 19.39687092 17.79296875 20.3515625 C25.65090228 24.39059776 30.70953922 31.54817211 35.39453125 38.8359375 C38.91889299 43.58653703 42.50955128 44.56693026 48.1875 45.875 C59.09100657 48.60940115 66.90992484 53.10082499 74 62 C78.61229098 69.78384536 81.20774873 76.38312467 81.375 85.4375 C81.41238281 86.20126953 81.44976562 86.96503906 81.48828125 87.75195312 C81.52262168 89.94401737 81.48128506 91.85990064 81 94 C77.57267817 97.53337902 75.06891735 98.91238382 70.1875 99.3125 C67.23732404 99.24302122 65.91673563 98.95929297 63.1875 97.625 C60.01333114 93.81599737 59.19052637 89.7481812 58 85 C56.33797818 78.53544889 54.92689286 74.73174735 49 71 C44.58763591 69.09711605 40.15477563 68.01708985 35.4375 67.1875 C30.27096628 66.09129632 26.89320488 63.46239942 23 60 C22.3915625 59.46117187 21.783125 58.92234375 21.15625 58.3671875 C17.19347231 54.63035766 14.33369755 50.59584789 11.41015625 46.01953125 C8.86583937 42.37573117 6.1721006 40.3907002 2 39 C-6.76493825 38.07355156 -6.76493825 38.07355156 -14.875 40.8125 C-18.52934107 43.97179487 -20.77981722 48.18324987 -23.25390625 52.27734375 C-30.18775358 63.08918176 -39.40732405 66.10230988 -51.4140625 68.875 C-55.80936669 70.25391896 -59.42328175 72.04159779 -62.35546875 75.68359375 C-64.88282891 81.01122151 -66.06025201 86.34470371 -67.09375 92.14453125 C-68 95 -68 95 -69.5703125 96.765625 C-73.68559015 98.85634483 -78.12094499 99.50116817 -82.625 100.37304688 C-88.92709058 101.70361194 -93.2754808 103.56978187 -97.13708496 109.01161194 C-99.65285155 113.61030133 -99.56257706 117.97991154 -99.51757812 123.12280273 C-99.5245874 124.11559235 -99.53159668 125.10838196 -99.53881836 126.1312561 C-99.55636129 129.39899016 -99.54478737 132.66585153 -99.53125 135.93359375 C-99.53394618 138.2137112 -99.53782965 140.49382752 -99.54284668 142.77394104 C-99.54873692 147.54772918 -99.54019451 152.32121748 -99.52148438 157.0949707 C-99.49870849 163.20256932 -99.51181288 169.30946426 -99.53577423 175.41703701 C-99.55025584 180.12434654 -99.54561507 184.83149037 -99.53526306 189.53880501 C-99.53260165 191.79018297 -99.53584483 194.04157615 -99.54518127 196.29293633 C-99.55538399 199.4449614 -99.5397922 202.59586108 -99.51757812 205.74780273 C-99.52567505 206.67116928 -99.53377197 207.59453583 -99.54211426 208.54588318 C-99.44345961 216.13383471 -97.48581846 221.36920493 -92.25390625 226.90625 C-87.83305433 229.75087981 -83.96170292 230.15742548 -78.83398438 230.73828125 C-73.67010236 231.47387698 -71.28118065 232.97870341 -68 237 C-66.38454376 240.06086445 -65.78441037 243.07281632 -65.125 246.4375 C-63.94429095 251.90509112 -61.88259044 255.54860168 -57.390625 259.01171875 C-53.49132109 261.29829213 -49.84810979 262.39195796 -45.5 263.5 C-32.76262556 266.74590386 -25.82971639 274.12187442 -18.63671875 284.7578125 C-16.25018838 288.02718823 -13.59718944 290.20140528 -10 292 C-0.4441174 292.77603831 -0.4441174 292.77603831 8 289 C11.09540923 285.49898542 13.82032096 281.75497457 16.42578125 277.87890625 C23.1393086 268.17738644 31.45825928 264.34243843 42.66699219 261.77270508 C48.13162455 260.47978676 52.14501277 258.93099191 55.29296875 253.95703125 C56.91539227 250.06746569 58.20389032 246.39669304 59 242.25 C59.84857493 238.1980547 60.69609183 235.72572424 64 233 C66.43380238 232.28520759 68.83127469 231.85209784 71.3359375 231.453125 C77.52939024 230.39969316 83.65121202 228.72154124 88 224 C91.64995549 217.70383977 92.57437993 212.16974197 92.48242188 204.9855957 C92.48829063 203.54967575 92.48829063 203.54967575 92.49427795 202.08474731 C92.50022133 200.02231309 92.49714052 197.9598366 92.4858551 195.8974247 C92.46851163 192.63088552 92.47614425 189.36522483 92.4901123 186.09867859 C92.51538046 179.16989157 92.50995313 172.24131432 92.5 165.3125 C92.48846594 157.26978411 92.48961283 149.22749722 92.52406311 141.18483543 C92.53115103 137.97065998 92.51449137 134.75716662 92.49694824 131.54304504 C92.50265567 129.57076653 92.50947273 127.59849082 92.51757812 125.6262207 C92.50060631 124.29120262 92.50060631 124.29120262 92.48329163 122.92921448 C92.54754245 116.38541705 94.29305325 112.70694675 99 108 C103.23973493 107.35862556 106.99291244 107.5714521 110.9375 109.25 C113.62423216 111.52965153 114.82769762 113.56831902 115.25168228 117.09125805 C115.25243633 117.84281327 115.25319038 118.5943685 115.25396729 119.36869812 C115.26242676 120.67004448 115.26242676 120.67004448 115.27105713 121.99768066 C115.26498444 123.41361511 115.26498444 123.41361511 115.25878906 124.8581543 C115.26404602 126.35890251 115.26404602 126.35890251 115.26940918 127.88996887 C115.27821944 131.20145587 115.27237751 134.51272952 115.265625 137.82421875 C115.26697238 140.12864727 115.26891353 142.43307551 115.27142334 144.73750305 C115.27437409 149.57201844 115.27008044 154.40645999 115.26074219 159.2409668 C115.2493797 165.42347734 115.25588715 171.60581362 115.26788712 177.78831768 C115.2751343 182.55053506 115.27280411 187.31271154 115.26763153 192.07493019 C115.26630128 194.35339186 115.26792079 196.63185729 115.27259064 198.91031456 C115.27769924 202.10526642 115.2698834 205.29994165 115.25878906 208.49487305 C115.26283752 209.42870819 115.26688599 210.36254333 115.27105713 211.32467651 C115.19165475 223.73789104 111.8337851 232.9982038 103.375 242.25 C97.94522994 247.40828156 91.02130542 250.97639498 83.77734375 252.8203125 C80.81049599 253.74350486 80.81049599 253.74350486 79.63671875 256.46875 C79.32347656 257.4690625 79.01023437 258.469375 78.6875 259.5 C75.32450717 268.46081796 69.04025547 275.49344419 60.984375 280.6640625 C57.58898036 282.18399047 54.23489976 283.02900387 50.63623047 283.93652344 C40.21759975 286.48973967 40.21759975 286.48973967 33.0625 294 C32.00302542 295.97980158 30.97621261 297.9778453 30 300 C25.89956253 306.47651879 18.52512695 311.57101254 11.25390625 313.8671875 C8.76300997 314.80964199 8.76300997 314.80964199 7.99609375 317.4609375 C7.81175781 318.42257812 7.62742187 319.38421875 7.4375 320.375 C6.56481194 324.84075544 5.56644262 327.09105798 2 330 C-1.60572704 331.20190901 -4.2102435 331.32670315 -8 331 C-11.97693191 328.61384086 -13.75926951 326.44595092 -15 322 C-14.95875 320.865625 -14.9175 319.73125 -14.875 318.5625 C-15.62483564 314.85978688 -15.62483564 314.85978688 -18.51953125 313.39453125 C-20.66671289 312.36462538 -22.82621545 311.36009089 -24.99609375 310.37890625 C-32.03034008 307.14992191 -35.74678664 301.90017653 -40.0703125 295.71875 C-40.70710938 294.8215625 -41.34390625 293.924375 -42 293 C-42.57105469 292.113125 -43.14210938 291.22625 -43.73046875 290.3125 C-46.86592655 287.11767897 -49.92058999 286.52014653 -54.1875 285.5 C-60.69520485 283.76062296 -66.42075764 281.90074148 -72 278 C-72.6084375 277.59523438 -73.216875 277.19046875 -73.84375 276.7734375 C-80.17824376 272.02256718 -84.86212836 264.36271523 -86.84765625 256.75 C-87.73644691 253.78446316 -87.73644691 253.78446316 -90.5390625 252.75 C-92.06660156 252.37875 -92.06660156 252.37875 -93.625 252 C-99.5026882 250.30356544 -103.46619239 248.05488427 -108 244 C-109.2684375 242.88625 -109.2684375 242.88625 -110.5625 241.75 C-119.38053757 231.8014448 -122.30657732 224.08237073 -122.2746582 210.97509766 C-122.27976913 209.88637863 -122.28488007 208.79765961 -122.29014587 207.6759491 C-122.30400891 204.08859714 -122.3030875 200.50143801 -122.30078125 196.9140625 C-122.30467005 194.41213917 -122.3090051 191.9102165 -122.31376648 189.40829468 C-122.32122168 184.1680132 -122.32108149 178.92778132 -122.31567383 173.6875 C-122.31030453 168.31600761 -122.31734137 162.9447038 -122.33618164 157.57324219 C-122.35868025 151.07475207 -122.36642841 144.57641921 -122.36250877 138.0778923 C-122.36302103 135.60684029 -122.36824072 133.13578447 -122.37832069 130.66475296 C-122.3907048 127.20421821 -122.38388097 123.74421808 -122.37231445 120.28369141 C-122.37995819 119.27041275 -122.38760193 118.25713409 -122.39547729 117.21315002 C-122.31047452 105.66357381 -118.52608942 97.71941531 -111 89 C-105.9364436 84.17998139 -97.99483542 78.53315659 -90.9140625 77.77734375 C-87.71986478 76.48010835 -86.93662963 73.36207172 -85.625 70.375 C-80.63327804 59.81328736 -74.00685626 52.00857864 -62.74609375 47.77734375 C-58.74881765 46.55917038 -54.75508752 45.39231368 -50.67578125 44.48046875 C-43.70015694 42.57553402 -40.81937391 36.75333654 -37 31 C-33.40719152 25.66300833 -29.50283623 23.11309307 -23.8125 20.1875 C-18.94241864 17.68540815 -18.94241864 17.68540815 -15.6015625 13.4453125 C-14.90932461 10.84209962 -14.90932461 10.84209962 -14.5 8.2734375 C-13.73840994 4.8105827 -11.70187997 3.14764818 -9 1 C-5.85088521 -0.57455739 -3.47991184 -0.34799118 0 0 Z " fill="#6EBAFB" transform="translate(284,41)"/>
<path d="M0 0 C1.16102791 -0.00397441 2.32205581 -0.00794881 3.51826638 -0.01204365 C6.73286282 -0.01999424 9.94711067 -0.01451317 13.16168702 -0.00329316 C16.63229892 0.00555958 20.10287477 -0.00289819 23.57348633 -0.00915527 C30.37232576 -0.01864236 37.17105902 -0.01204234 43.96989057 0.00010767 C51.89922807 0.01374755 59.82854043 0.01208776 67.75788667 0.00997434 C81.92074073 0.00678398 96.08354452 0.01845026 110.24638367 0.03804016 C123.96091751 0.0570048 137.67539234 0.0641381 151.38993835 0.05854797 C166.33873308 0.05247273 181.28750185 0.05270214 196.23629445 0.06403381 C197.83481832 0.065241 199.4333422 0.06644698 201.03186607 0.06765175 C201.81823958 0.06825529 202.60461308 0.06885883 203.41481609 0.06948065 C208.9282633 0.07334252 214.44170079 0.07297276 219.9551487 0.0710659 C226.69256042 0.06893047 233.42992076 0.07426792 240.16731808 0.08867946 C243.59826499 0.09586254 247.02913756 0.10005358 250.46009064 0.0954361 C288.06784197 0.06264843 288.06784197 0.06264843 294.53520203 4.3742218 C294.82817078 6.5382843 294.82817078 6.5382843 294.72270203 8.9992218 C294.69563171 9.81648743 294.6685614 10.63375305 294.64067078 11.4757843 C294.58846375 12.41551086 294.58846375 12.41551086 294.53520203 13.3742218 C282.95637365 20.07772185 264.76542078 17.67471284 251.91899109 17.67720032 C249.56339735 17.68487526 247.20780632 17.69342421 244.85221863 17.70277405 C239.80566872 17.72095961 234.75915517 17.73305752 229.71257782 17.74031258 C222.39568239 17.7508895 215.07885637 17.77267792 207.76200053 17.79769849 C195.85926767 17.83817241 183.95652791 17.87067822 172.05375671 17.89741516 C171.34349436 17.89901246 170.63323201 17.90060976 169.90144655 17.90225547 C169.19035503 17.90385437 168.47926351 17.90545327 167.74662375 17.90710062 C157.6771204 17.92976451 147.60762444 17.95440989 137.53813171 17.98139954 C136.8299623 17.98329568 136.12179288 17.98519183 135.39216378 17.98714543 C123.534367 18.0190543 111.67658348 18.05481581 99.81880355 18.09244102 C91.88686722 18.1173385 83.95493447 18.13670184 76.02297258 18.15182316 C71.06830448 18.16210838 66.11365229 18.1762547 61.15899658 18.19129944 C58.88036225 18.19739649 56.6017229 18.20188808 54.32308197 18.20455742 C43.82211244 18.21754916 33.33106152 18.28510827 22.83934021 18.7600708 C22.06745684 18.79026229 21.29557347 18.82045379 20.50029969 18.85156018 C16.50365534 19.06290994 13.05860398 19.3929088 9.53520203 21.3742218 C7.84054347 26.45819747 7.66120938 31.46732876 9.91020203 36.3742218 C11.95695582 38.8933034 12.90825357 39.2993624 16.1230011 39.68321228 C23.8811556 40.2595683 31.59305095 40.53315954 39.37113953 40.5851593 C41.75786557 40.6131908 44.14458425 40.64185491 46.53129578 40.6710968 C50.23751401 40.71250155 53.94358872 40.7494572 57.64994812 40.77558899 C61.26562032 40.80319317 64.88069737 40.84901148 68.49613953 40.8976593 C69.6004129 40.90091217 70.70468628 40.90416504 71.84242249 40.90751648 C78.67303606 41.01646666 84.46044148 41.29946125 89.53520203 46.3742218 C89.71023198 48.95525487 89.76682481 51.42730343 89.73051453 54.0070343 C89.72768463 54.75886993 89.72485474 55.51070557 89.72193909 56.2853241 C89.71073077 58.69011758 89.68562555 61.09454061 89.66020203 63.4992218 C89.65017304 65.12812268 89.64104705 66.75702938 89.63285828 68.38594055 C89.61078937 72.38217736 89.57625553 76.37813674 89.53520203 80.3742218 C87.49257685 80.08934529 85.45113175 79.79600129 83.41020203 79.4992218 C82.2732489 79.33679993 81.13629578 79.17437805 79.96488953 79.0070343 C76.67109839 78.39929607 73.70081747 77.4470137 70.53520203 76.3742218 C63.63545804 75.70650464 57.72835564 77.13875003 51.11967468 78.95088196 C47.75114041 79.86972189 45.06187517 80.3742218 41.53520203 80.3742218 C41.48621765 79.49379211 41.43723328 78.61336243 41.38676453 77.70625305 C41.3119989 76.54480774 41.23723328 75.38336243 41.16020203 74.1867218 C41.09059265 73.03816711 41.02098328 71.88961243 40.94926453 70.70625305 C40.55460791 67.53038425 40.04731496 65.18757478 38.53520203 62.3742218 C35.79812341 61.46186226 34.05210808 61.22408479 31.22245789 61.15644836 C29.91981239 61.12070709 29.91981239 61.12070709 28.59085083 61.08424377 C27.65338516 61.06134277 26.71591949 61.03844177 25.75004578 61.0148468 C23.75456609 60.95088613 21.759124 60.88574347 19.76371765 60.8195343 C16.62619415 60.71875784 13.48916143 60.62460796 10.35087585 60.55097961 C7.31619161 60.47706243 4.28366839 60.37329259 1.25004578 60.2648468 C-0.1348983 60.24264069 -0.1348983 60.24264069 -1.54782104 60.21998596 C-10.05326088 59.87197122 -17.803284 56.79253739 -23.83979797 50.6242218 C-30.5463692 43.27957598 -32.14196082 36.4457269 -32.07417297 26.68745422 C-31.66776918 17.85305647 -27.84002453 12.35832646 -21.46479797 6.4367218 C-14.58390995 0.60230217 -8.73654749 -0.05944775 0 0 Z " fill="#FEFEFE" transform="translate(114.46479797363281,409.6257781982422)"/>
<path d="M0 0 C23.03547507 8.11131427 39.63605982 21.4272782 50.38208008 43.69604492 C59.26482826 62.96890297 59.90008752 84.43290634 52.94140625 104.5546875 C45.35166108 124.91903281 30.18635754 140.8655059 10.6796875 150.203125 C5.26470197 152.50961614 -0.24918162 154.23606121 -5.93359375 155.7421875 C-6.54557617 155.9187085 -7.15755859 156.09522949 -7.78808594 156.27709961 C-12.13255443 157.21886252 -16.63168417 156.92688566 -21.05859375 156.9296875 C-22.05375 156.94193359 -23.04890625 156.95417969 -24.07421875 156.96679688 C-30.6041243 156.9795839 -36.59236607 156.28145537 -42.93359375 154.7421875 C-43.74957031 154.55100342 -44.56554687 154.35981934 -45.40625 154.1628418 C-59.33647873 150.73095674 -70.01047103 142.66531022 -79.93359375 132.7421875 C-80.58714844 132.17113281 -81.24070313 131.60007812 -81.9140625 131.01171875 C-93.03696426 121.11055449 -99.47881374 105.14112097 -101.93359375 90.7421875 C-102.18040374 86.20312749 -102.16475391 81.66229795 -102.18359375 77.1171875 C-102.20421875 75.89644531 -102.22484375 74.67570312 -102.24609375 73.41796875 C-102.27914337 65.69262104 -101.45096846 59.04875083 -98.93359375 51.7421875 C-98.51980469 50.53949219 -98.10601562 49.33679688 -97.6796875 48.09765625 C-92.79604773 36.2748746 -85.23496529 22.53525018 -73.93359375 15.7421875 C-69.90244948 14.65799888 -66.86234716 15.31819138 -63.05859375 17.0546875 C-60.68632533 18.93854772 -59.21600564 20.63105874 -58.45703125 23.6171875 C-57.90748229 31.48441478 -62.2239161 35.86145486 -66.93359375 41.7421875 C-76.11528203 54.71055875 -80.48358513 67.63272651 -78.93359375 83.7421875 C-75.93833928 100.34300464 -68.21318122 114.49644263 -54.2421875 124.36328125 C-40.13973506 132.78657349 -24.71042585 135.3422604 -8.47314453 132.27783203 C5.6207399 128.51058904 18.11787109 119.44478661 25.75 106.99609375 C33.46189468 92.5146556 36.81827932 77.53845346 32.00390625 61.6171875 C26.8377218 46.0027082 17.82753151 34.26156949 3.06640625 26.7421875 C2.36773437 26.37480469 1.6690625 26.00742188 0.94921875 25.62890625 C-5.85759852 22.49195665 -13.16840254 21.46923632 -20.53442383 20.39990234 C-26.13453417 19.48695782 -29.41516247 18.54456245 -32.93359375 13.7421875 C-34.19820053 10.69636861 -34.42317327 8.00234206 -33.93359375 4.7421875 C-26.77533868 -7.60121387 -11.62996435 -3.87008259 0 0 Z " fill="#6EBAFB" transform="translate(302.93359375,127.2578125)"/>
<path d="M0 0 C1.73618056 0.00056566 3.47236159 0.00024454 5.20854187 -0.00088501 C9.87283717 -0.00145348 14.53702737 0.01021786 19.20129848 0.02426291 C24.09395598 0.03685562 28.98661651 0.03794744 33.87928772 0.04031372 C43.12237861 0.04650359 52.36542159 0.06288029 61.60849148 0.0830127 C72.14067574 0.10544978 82.67286241 0.11638468 93.20506465 0.12640357 C114.85036017 0.14724901 136.49560993 0.18278388 158.14086914 0.22705078 C158.14086914 6.16705078 158.14086914 12.10705078 158.14086914 18.22705078 C135.41784689 18.27342698 112.69483612 18.30908007 89.97177601 18.33067513 C79.42013242 18.34097035 68.86851885 18.35499705 58.31689453 18.37792969 C49.11586937 18.39791736 39.91486596 18.41077995 30.71381968 18.41522777 C25.84579982 18.41782606 20.97784215 18.42389639 16.1098423 18.43851089 C11.5191796 18.45217991 6.92860417 18.45625475 2.33792305 18.45326614 C0.66148147 18.45381217 -1.01496332 18.4577337 -2.69138718 18.46546173 C-25.86440428 18.56696148 -25.86440428 18.56696148 -35.85913086 14.22705078 C-35.94004057 12.60286333 -35.99828081 10.97753333 -36.04663086 9.35205078 C-36.08143555 8.44712891 -36.11624023 7.54220703 -36.15209961 6.60986328 C-36.05541992 5.82353516 -35.95874023 5.03720703 -35.85913086 4.22705078 C-26.64076568 -1.918526 -10.75482662 -0.04980751 0 0 Z " fill="#FDFEFE" transform="translate(262.859130859375,450.77294921875)"/>
</svg>
